<svg xmlns="http://www.w3.org/2000/svg" width="140" height="30" viewBox="0 0 140 30">
  <g id="dexef_logo" transform="translate(0 -0.051)">
    <g id="Layer_1" data-name="Layer 1" transform="translate(0 0.051)">
      <path id="Path_285" data-name="Path 285" d="M391.683.23H376.7a2.993,2.993,0,0,0-3,2.989V27.134a3,3,0,0,0,5.994,0V18.166h8.991a2.989,2.989,0,1,0,0-5.979h-8.991V6.209h11.988a2.989,2.989,0,1,0,0-5.979Z" transform="translate(-254.68 -0.176)" fill="#0074d7"/>
      <path id="Path_286" data-name="Path 286" d="M311.683,24.145H299.694V18.166h8.991a2.989,2.989,0,1,0,0-5.979h-8.991V6.209h11.988a2.989,2.989,0,1,0,0-5.979H296.7a2.993,2.993,0,0,0-3,2.989V27.134a2.993,2.993,0,0,0,3,2.989h14.986a2.989,2.989,0,1,0,0-5.979Z" transform="translate(-200.662 -0.176)" fill="#0074d7"/>
      <path id="Path_287" data-name="Path 287" d="M117.983,24.145H105.994V18.166h8.991a2.989,2.989,0,1,0,0-5.979h-8.991V6.209h11.988a2.989,2.989,0,1,0,0-5.979H103a2.993,2.993,0,0,0-3,2.989V27.134a2.993,2.993,0,0,0,3,2.989h14.986a2.989,2.989,0,1,0,0-5.979Z" transform="translate(-68.024 -0.176)" fill="#0074d7"/>
      <path id="Path_288" data-name="Path 288" d="M20.98,3.222a14.89,14.89,0,0,0-3-1.746,14.083,14.083,0,0,0-1.8-.649,14.971,14.971,0,0,0-4.2-.6H3A2.993,2.993,0,0,0,0,3.219V27.134a2.993,2.993,0,0,0,3,2.989h8.991a14.971,14.971,0,0,0,4.2-.6,14.083,14.083,0,0,0,1.8-.649,14.928,14.928,0,0,0,3-25.655ZM11.988,24.148H5.994V6.212h5.994a8.968,8.968,0,1,1,0,17.936Z" transform="translate(0 -0.176)" fill="#0074d7"/>
      <g id="Group_318" data-name="Group 318" transform="translate(57.007)">
        <path id="Path_289" data-name="Path 289" d="M191.636,4.095l-.06-.057-.06-.06-.057-.057-.06-.06c-.018-.021-.039-.039-.06-.06l-.057-.057-.06-.06-.057-.057-.06-.06-.06-.06-.057-.057-.06-.06-.057-.057-.06-.06c-.018-.021-.039-.039-.06-.06l-.057-.057-.06-.06-.057-.057-.06-.06c-.018-.021-.039-.039-.06-.06l-.057-.069-.06-.06-.057-.057-.06-.06-.06-.06-.057-.057-.06-.06-.057-.06-.06-.057-.06-.06-.057-.057-.06-.06-.06-.06-.057-.057-.06-.06-.057-.057-.06-.06c-.018-.021-.039-.039-.06-.06l-.057-.057-.06-.06-.057-.057-.06-.06-.06-.06-.045-.045-.06-.06-.057-.057-.06-.06-.06-.06-.063-.057-.06-.06c-2.69-2.861-7.085,1.534-4.224,4.224l.057.06.06.06.06.057.057.06.06.057a.564.564,0,0,0,.06.06l.057.06.06.057.057.06.06.057a.566.566,0,0,0,.06.06l.057.06.06.057.057.06.06.057.06.06.057.06.06.057.057.06.06.06.06.057.057.06.06.057.057.06.06.06.06.057.057.06.06.057.057.06.06.06.06.057.057.06.06.057.06.06.057.06.06.057.057.06.06.057a.562.562,0,0,0,.06.06l.057.06.06.057.057.06.06.06.06.057.057.06.06.057.057.06.06.06.06.057.057.06C190.105,11.183,194.494,6.788,191.636,4.095Z" transform="translate(-182.5 -0.179)" fill="#f60"/>
        <path id="Path_290" data-name="Path 290" d="M261.637,74.109l-.03-.03a.141.141,0,0,1-.03-.03l-.03-.03a.282.282,0,0,1-.03-.03l-.03-.027-.09-.09-.03-.03-.027-.03-.03-.03a.141.141,0,0,1-.03-.03l-.06-.06-.03-.027-.09-.09a.279.279,0,0,0-.03-.03l-.027-.03a.279.279,0,0,1-.03-.03.14.14,0,0,1-.03-.03.282.282,0,0,1-.03-.03l-.03-.03-.03-.027-.09-.09a.285.285,0,0,0-.03-.03l-.027-.03a.279.279,0,0,1-.03-.03l-.06-.06-.03-.03-.03-.027-.06-.06a.14.14,0,0,0-.03-.03.279.279,0,0,0-.03-.03l-.027-.03a.284.284,0,0,1-.03-.03l-.06-.06-.03-.027a.282.282,0,0,0-.03-.03l-.03-.03-.06-.06a.281.281,0,0,0-.03-.03l-.027-.03a.279.279,0,0,1-.03-.03l-.06-.06a.282.282,0,0,1-.03-.03l-.03-.027a.281.281,0,0,0-.03-.03l-.06-.06-.03-.03-.027-.03-.03-.03-.06-.06a.281.281,0,0,1-.03-.03l-.03-.027a.279.279,0,0,0-.03-.03l-.06-.06-.03-.03-.027-.03-.03-.03-.06-.06a.282.282,0,0,1-.03-.03l-.03-.027a.282.282,0,0,0-.03-.03l-.06-.06a.281.281,0,0,0-.03-.03l-.027-.03a.278.278,0,0,1-.03-.03l-.06-.06-.03-.03-.03-.027-.03-.03-.06-.06a.14.14,0,0,0-.03-.03l-.027-.03a.281.281,0,0,1-.03-.03l-.06-.06-.03-.03-.03-.027-.03-.03-.06-.06a.141.141,0,0,0-.03-.03l-.027-.03c-2.69-2.825-7.052,1.534-4.227,4.227l.03.03.03.03.027.027.03.03.03.03.03.03.03.03.03.03.03.03.03.03.03.03.03.03.027.027.03.03.03.03.03.03a.282.282,0,0,0,.03.03l.03.03.03.03.03.03.03.03.03.03.027.027.03.03.03.03.03.03a.28.28,0,0,0,.03.03l.03.03.03.03.03.03.03.03.03.03.03.027.027.03.03.03.03.03a.282.282,0,0,0,.03.03l.03.03.03.03a.277.277,0,0,0,.03.03l.03.03.03.03.03.03.027.027.03.03.03.03.03.03.03.03.03.03.03.03.03.03.03.03.03.03.027.027.03.03.03.03.03.03.03.03.03.03.03.03.03.03.03.03.03.03.027.027.03.03.03.03.03.03.03.03.03.03.03.03.03.03.03.03.03.03.027.027.03.03.03.03.03.03.03.03.03.03.03.03.03.03.03.03.03.03.027.027.03.03.03.03.03.03.03.03.03.03.03.03.03.03.03.03.03.03.027.027.03.03.03.03.03.03.03.03.03.03.03.03C260.1,81.161,264.459,76.8,261.637,74.109Z" transform="translate(-231.561 -49.253)" fill="#f60"/>
        <path id="Path_291" data-name="Path 291" d="M205.132,3.025A3.005,3.005,0,0,0,199.96.989c-.057.033-3.2,3.181-3.255,3.231s-.1.1-.146.149-.1.1-.149.146-.1.1-.146.149-.1.1-.149.146-.1.1-.146.149-.1.1-.149.146-.1.1-.146.149-.1.1-.149.146-.1.1-.146.149-.1.1-.149.146-.1.1-.146.149-.1.1-.149.146-.1.1-.146.149-.1.1-.149.146-.1.1-.146.149-.1.1-.149.146-.1.1-.146.149-.1.1-.149.146-.1.1-.146.149-.1.1-.149.146-.1.1-.146.149-.1.1-.149.146-.1.1-.146.149-.1.1-.149.146-.1.1-.146.149-.1.1-.149.146-.1.1-.146.149-.1.1-.149.146-.1.1-.146.149-.1.1-.149.146-.1.1-.146.149-.1.1-.149.146-.1.1-.146.149-.1.1-.149.146-.1.1-.146.149-.1.1-.149.146-.1.1-.146.149-.1.1-.149.146-.1.1-.146.149-.1.1-.149.146-.1.1-.146.149-.1.1-.149.146-.1.1-.146.149-.1.1-.149.146-.1.1-.146.149-.1.1-.149.149-.1.1-.146.146-.1.1-.149.149-.1.1-.146.146-.1.1-.149.149-.1.1-.146.146-.1.1-.149.149-.1.1-.146.146-.1.1-.149.149-.1.1-.146.146-.1.1-.149.149-.1.1-.146.146-.1.1-.149.149-.1.1-.146.146-.1.1-.149.149-.1.1-.146.146-.1.1-.149.149-.1.1-.146.146l-.149.149-.146.146-.149.149-.146.146c-.051.048-.1.1-.149.149s-.1.1-.146.146l-.149.149-.146.146-.149.149-.146.146c-.051.048-.1.1-.149.149s-.1.1-.146.146-.1.1-.149.149l-.146.146-.149.149-.146.146c-.051.048-.1.1-.149.149s-.1.1-.146.146-.1.1-.149.149-.1.1-.146.146-.1.1-.149.149l-.146.146c-.054.048-.1.1-.149.149s-.1.1-.146.146-.1.1-.149.149-.1.1-.146.146-.1.1-.149.149-.1.1-.146.146-.1.1-.149.149-.1.1-.146.146-.1.1-.149.149-.1.1-.146.146-.1.1-.149.149-.1.1-.146.146-.1.1-.149.149-1.157,1.151-1.2,1.2c-2.971,2.69,1.531,7.2,4.221,4.221.051-.048,1.157-1.151,1.2-1.2s.1-.1.146-.149.1-.1.149-.146.1-.1.146-.149.1-.1.149-.146.1-.1.146-.149.1-.1.149-.146.1-.1.146-.149.1-.1.149-.146.1-.1.146-.149.1-.1.149-.146.1-.1.146-.149.1-.1.149-.146.1-.1.146-.149.1-.1.149-.146.1-.1.146-.149.1-.1.149-.146.1-.1.146-.149.1-.1.149-.146.1-.1.146-.149.1-.1.149-.146.1-.1.146-.149a1.765,1.765,0,0,0,.149-.149,1.7,1.7,0,0,0,.146-.146,1.76,1.76,0,0,0,.149-.149c.051-.045.1-.1.149-.146s.1-.1.146-.149.1-.1.149-.146.1-.1.146-.149.1-.1.149-.146.1-.1.146-.149.1-.1.149-.146.1-.1.146-.149.1-.1.149-.146.1-.1.146-.149.1-.1.149-.146.1-.1.146-.149.1-.1.149-.146.1-.1.146-.149.1-.1.149-.146.1-.1.146-.149.1-.1.149-.146.1-.1.146-.149.1-.1.149-.146.1-.1.146-.149.1-.1.149-.146.1-.1.146-.149.1-.1.149-.146.1-.1.146-.149.1-.1.149-.146.1-.1.146-.149.1-.1.149-.146.1-.1.146-.149.1-.1.149-.146.1-.1.146-.149.1-.1.149-.146.1-.1.146-.149.1-.1.149-.146.1-.1.146-.149.1-.1.149-.146.1-.1.146-.149.1-.1.149-.146.1-.1.146-.149.1-.1.149-.146.1-.1.146-.149.1-.1.149-.146.1-.1.146-.149.1-.1.149-.146.1-.1.146-.149.1-.1.149-.146.1-.1.146-.149.1-.1.149-.146.1-.1.146-.149.1-.1.149-.146.1-.1.146-.149.1-.1.149-.146.1-.1.146-.149.1-.1.149-.146.1-.1.146-.149.1-.1.149-.146.1-.1.146-.149.1-.1.149-.146.1-.1.146-.149.1-.1.149-.146.1-.1.146-.149.1-.1.149-.146.1-.1.146-.149.1-.1.149-.146.1-.1.146-.149.1-.1.149-.146.1-.1.146-.149.1-.1.149-.146.1-.1.146-.149.1-.1.149-.146.1-.1.146-.149.1-.1.149-.146.1-.1.146-.149.1-.1.149-.146.1-.1.146-.149,3.2-3.2,3.249-3.246a2.989,2.989,0,0,0,.957-2.17Z" transform="translate(-180.03 -0.051)" fill="#f60"/>
        <path id="Path_292" data-name="Path 292" d="M224.839,19.273a3.007,3.007,0,0,0-5.175-2.036c-.051.048-3.2,3.2-3.246,3.246s-.1.1-.149.149-.1.1-.146.146-.1.1-.149.149l-.146.146c-.051.048-.1.1-.149.149s-.1.1-.146.146-.1.1-.149.149-.1.1-.146.146-.1.1-.149.149-.1.1-.146.146-.1.1-.149.149-.1.1-.146.146-.1.1-.149.149-.1.1-.146.146-.1.1-.149.149-.1.1-.146.146-.1.1-.149.149-.1.1-.146.146-.1.1-.149.149-.1.1-.146.146-.1.1-.149.149-.1.1-.146.146-.1.1-.149.149-.1.1-.149.146-.1.1-.146.149-.1.1-.149.146-.1.1-.146.149-.1.1-.149.146-.1.1-.146.149-.1.1-.149.146-.1.1-.146.149-.1.1-.149.146-.1.1-.146.149-.1.1-.149.146-.1.1-.146.149-.1.1-.149.146-.1.1-.146.149-.1.1-.149.146-.1.1-.146.149-.1.1-.149.146-.1.1-.146.149-.1.1-.149.146-.1.1-.146.149-.1.1-.149.146-.1.1-.146.149-.1.1-.149.146-.1.1-.146.149-.1.1-.149.146-.1.1-.146.149-.1.1-.149.146-.1.1-.146.149-.1.1-.149.146-.1.1-.146.149-.1.1-.149.146-.1.1-.146.149-.1.1-.149.146-.1.1-.146.149-.1.1-.149.146-.1.1-.146.149-.1.1-.149.146-.1.1-.146.149-.1.1-.149.146-.1.1-.146.149-.1.1-.149.146-.1.1-.146.149-.1.1-.149.146-.1.1-.146.149-.1.1-.149.146-.1.1-.146.149-.1.1-.149.146-.1.1-.146.149-.1.1-.149.146-.1.1-.146.149-.1.1-.149.146-.1.1-.146.149-.1.1-.149.149-.1.1-.146.146-.1.1-.149.149-.1.1-.146.146-.1.1-.149.149-.1.1-.146.146-.1.1-.149.149-.1.1-.146.146-.1.1-.149.149-.1.1-.146.146-.1.1-.149.149-.1.1-.146.146-.1.1-.149.149-.1.1-.146.146-.1.1-.149.149-.1.1-.146.146l-.149.149-.146.146c-.051.048-.1.1-.149.149s-.1.1-.146.146-.1.1-.149.149l-.146.146-.149.149c-.051.048-1.157,1.151-1.2,1.2-2.971,2.69,1.531,7.2,4.221,4.221.051-.048,1.157-1.151,1.2-1.2a1.7,1.7,0,0,0,.146-.146,1.766,1.766,0,0,0,.149-.149,1.689,1.689,0,0,0,.146-.146,1.765,1.765,0,0,0,.149-.149,1.7,1.7,0,0,0,.146-.146,1.763,1.763,0,0,0,.149-.149c.051-.048.1-.1.149-.146s.1-.1.146-.149.1-.1.149-.146.1-.1.146-.149.1-.1.149-.146.1-.1.146-.149.1-.1.149-.146.1-.1.146-.149.1-.1.149-.146.1-.1.146-.149.1-.1.149-.146.1-.1.146-.149.1-.1.149-.146.1-.1.146-.149.1-.1.149-.146.1-.1.146-.149.1-.1.149-.146.1-.1.146-.149.1-.1.149-.146.1-.1.146-.149.1-.1.149-.146.1-.1.146-.149.1-.1.149-.146.1-.1.146-.149.1-.1.149-.146.1-.1.146-.149.1-.1.149-.146.1-.1.146-.149.1-.1.149-.146.1-.1.146-.149.1-.1.149-.146.1-.1.146-.149.1-.1.149-.146.1-.1.146-.149.1-.1.149-.146.1-.1.146-.149.1-.1.149-.146.1-.1.146-.149.1-.1.149-.146.1-.1.146-.149.1-.1.149-.146.1-.1.146-.149.1-.1.149-.146.1-.1.146-.149.1-.1.149-.146.1-.1.146-.149.1-.1.149-.146.1-.1.146-.149.1-.1.149-.146.1-.1.146-.149.1-.1.149-.146.1-.1.146-.149.1-.1.149-.146.1-.1.146-.149.1-.1.149-.146.1-.1.146-.149.1-.1.149-.146.1-.1.146-.149.1-.1.149-.146.1-.1.146-.149.1-.1.149-.146.1-.1.146-.149.1-.1.149-.146.1-.1.146-.149.1-.1.149-.146.1-.1.146-.149.1-.1.149-.146.1-.1.146-.149.1-.1.149-.146.1-.1.146-.149.1-.1.149-.146.1-.1.146-.149.1-.1.149-.146.1-.1.146-.149.1-.1.149-.146.1-.1.146-.149.1-.1.149-.146.1-.1.146-.149.1-.1.149-.146.1-.1.146-.149.1-.1.149-.146.1-.1.146-.149.1-.1.149-.146.1-.1.146-.149.1-.1.149-.146.1-.1.146-.149.1-.1.149-.146.1-.1.146-.149a1.758,1.758,0,0,0,.149-.149A1.688,1.688,0,0,0,220.34,25a1.769,1.769,0,0,0,.149-.149,1.692,1.692,0,0,0,.146-.146c.054-.048,3.2-3.2,3.249-3.246A2.989,2.989,0,0,0,224.839,19.273Z" transform="translate(-193.849 -11.441)" fill="#f60"/>
      </g>
    </g>
  </g>
</svg>
